<svg xmlns="http://www.w3.org/2000/svg" viewBox="0 0 1440 320"><path fill="#702ec3" fill-opacity="1" d="M0,128L26.7,154.7C53.3,181,107,235,160,229.3C213.3,224,267,160,320,117.3C373.3,75,427,53,480,69.3C533.3,85,587,139,640,186.7C693.3,235,747,277,800,298.7C853.3,320,907,320,960,304C1013.3,288,1067,256,1120,229.3C1173.3,203,1227,181,1280,149.3C1333.3,117,1387,75,1413,53.3L1440,32L1440,0L1413.3,0C1386.7,0,1333,0,1280,0C1226.7,0,1173,0,1120,0C1066.7,0,1013,0,960,0C906.7,0,853,0,800,0C746.7,0,693,0,640,0C586.7,0,533,0,480,0C426.7,0,373,0,320,0C266.7,0,213,0,160,0C106.7,0,53,0,27,0L0,0Z"></path></svg>